<svg xmlns="http://www.w3.org/2000/svg" viewBox="0 0 240 278" width="240" height="278">
  <defs>
    <linearGradient id="hexFill" x1="0%" y1="0%" x2="100%" y2="100%">
      <stop offset="0%" stop-color="#f7fafc"/>
      <stop offset="100%" stop-color="#e8eef5"/>
    </linearGradient>
    <linearGradient id="cardFill" x1="0%" y1="0%" x2="100%" y2="100%">
      <stop offset="0%" stop-color="#ffffff"/>
      <stop offset="100%" stop-color="#eef4fa"/>
    </linearGradient>
  </defs>

  <polygon
    points="120,14 202,61 202,155 120,202 38,155 38,61"
    fill="#294f79"
    stroke="#294f79"
    stroke-width="5"
    stroke-linejoin="round"
  />

  <polygon
    points="120,24 192,66 192,150 120,192 48,150 48,66"
    fill="url(#hexFill)"
    stroke="#ffffff"
    stroke-width="2.5"
    stroke-linejoin="round"
  />

  <rect
    x="76"
    y="88"
    width="78"
    height="66"
    rx="14"
    fill="#cfe8dc"
    stroke="#87ae9a"
    stroke-width="3"
    transform="rotate(-10 115 121)"
  />

  <rect
    x="84"
    y="78"
    width="96"
    height="80"
    rx="16"
    fill="url(#cardFill)"
    stroke="#294f79"
    stroke-width="4"
  />

  <line x1="102" y1="102" x2="154" y2="102" stroke="#294f79" stroke-width="8" stroke-linecap="round"/>
  <line x1="102" y1="120" x2="144" y2="120" stroke="#5f85aa" stroke-width="8" stroke-linecap="round"/>
  <line x1="102" y1="138" x2="134" y2="138" stroke="#9ab6cf" stroke-width="8" stroke-linecap="round"/>
  <circle cx="164" cy="102" r="6.5" fill="#294f79"/>
  <circle cx="154" cy="120" r="6.5" fill="#46a58b"/>
  <circle cx="144" cy="138" r="6.5" fill="#8bb86d"/>
</svg>
